HIERARCHY
ROOT Hips
{
	OFFSET -0.001795 -0.223333 0.028219
	CHANNELS 6 Xposition Yposition Zposition Zrotation Yrotation Xrotation 
	JOINT LeftUpLeg
	{
		OFFSET 0.069520 -0.091406 -0.006815
		CHANNELS 3 Zrotation Yrotation Xrotation
		JOINT LeftLeg
		{
			OFFSET 0.034277 -0.375199 -0.004496
			CHANNELS 3 Zrotation Yrotation Xrotation
			JOINT LeftFoot
			{
				OFFSET -0.013596 -0.397961 -0.043693
				CHANNELS 3 Zrotation Yrotation Xrotation
				JOINT LeftToe
				{
					OFFSET 0.026358 -0.055791 0.119288
					CHANNELS 3 Zrotation Yrotation Xrotation
					End Site
					{
						OFFSET 0.000000 0.000000 0.000000
					}
				}
			}
		}
	}
	JOINT RightUpLeg
	{
		OFFSET -0.067670 -0.090522 -0.004320
		CHANNELS 3 Zrotation Yrotation Xrotation
		JOINT RightLeg
		{
			OFFSET -0.038290 -0.382569 -0.008850
			CHANNELS 3 Zrotation Yrotation Xrotation
			JOINT RightFoot
			{
				OFFSET 0.015774 -0.398415 -0.042312
				CHANNELS 3 Zrotation Yrotation Xrotation
				JOINT RightToe
				{
					OFFSET -0.025372 -0.048144 0.123348
					CHANNELS 3 Zrotation Yrotation Xrotation
					End Site
					{
						OFFSET 0.000000 0.000000 0.000000
					}
				}
			}
		}
	}
	JOINT Spine
	{
		OFFSET -0.002533 0.108963 -0.026696
		CHANNELS 3 Zrotation Yrotation Xrotation
		JOINT Spine1
		{
			OFFSET 0.005487 0.135180 0.001092
			CHANNELS 3 Zrotation Yrotation Xrotation
			JOINT Spine2
			{
				OFFSET 0.001457 0.052922 0.025425
				CHANNELS 3 Zrotation Yrotation Xrotation
				JOINT Neck
				{
					OFFSET -0.002778 0.213870 -0.042857
					CHANNELS 3 Zrotation Yrotation Xrotation
					JOINT Head
					{
						OFFSET 0.005152 0.064970 0.051349
						CHANNELS 3 Zrotation Yrotation Xrotation
						End Site
						{
							OFFSET 0.000000 0.000000 0.000000
						}
					}
				}
				JOINT LeftShoulder
				{
					OFFSET 0.078845 0.121749 -0.034090
					CHANNELS 3 Zrotation Yrotation Xrotation
					JOINT LeftArm
					{
						OFFSET 0.090977 0.030469 -0.008868
						CHANNELS 3 Zrotation Yrotation Xrotation
						JOINT LeftForeArm
						{
							OFFSET 0.259612 -0.012772 -0.027456
							CHANNELS 3 Zrotation Yrotation Xrotation
							JOINT LeftHand
							{
								OFFSET 0.249234 0.008986 -0.001171
								CHANNELS 3 Zrotation Yrotation Xrotation
								End Site
								{
									OFFSET 0.000000 0.000000 0.000000
								}
							}
						}
					}
				}
				JOINT RightShoulder
				{
					OFFSET -0.081759 0.118833 -0.038615
					CHANNELS 3 Zrotation Yrotation Xrotation
					JOINT RightArm
					{
						OFFSET -0.096012 0.032551 -0.009143
						CHANNELS 3 Zrotation Yrotation Xrotation
						JOINT RightForeArm
						{
							OFFSET -0.253742 -0.013329 -0.021401
							CHANNELS 3 Zrotation Yrotation Xrotation
							JOINT RightHand
							{
								OFFSET -0.255298 0.007772 -0.005559
								CHANNELS 3 Zrotation Yrotation Xrotation
								End Site
								{
									OFFSET 0.000000 0.000000 0.000000
								}
							}
						}
					}
				}
			}
		}
	}
}
MOTION
Frames: 16
Frame Time: 0.050000
0.343215 0.934626 0.077843 -10.927777 14.919425 6.629439 11.971104 -0.978324 -20.792274 -13.157757 1.858322 20.095560 0.120099 -0.794724 -1.640057 0.000000 0.000000 0.000000 -4.653121 0.595532 -9.745950 1.543907 -0.282467 14.075934 1.832189 2.458383 6.345485 0.000000 0.000000 0.000000 0.012503 -0.747601 12.183557 -2.055019 0.998773 -2.082655 -3.096080 13.252504 3.359156 7.900905 -0.093604 -22.675894 0.000000 0.000000 0.000000 3.613713 -24.906368 7.504476 13.883995 -37.284456 -7.807987 25.645045 -7.445193 -2.154666 0.000000 0.000000 0.000000 18.362166 14.792907 12.527003 58.838726 40.596390 16.144178 -55.615809 79.538064 -34.757025 0.000000 0.000000 0.000000 
0.337194 0.932196 0.076235 -10.481858 14.395265 5.946339 12.373669 -0.885097 -20.382575 -14.172892 2.149341 20.663122 0.354725 -0.470216 -1.966074 0.000000 0.000000 0.000000 -5.249973 0.499043 -8.609296 1.456028 -0.257751 14.637084 -0.269263 -4.282077 16.167450 0.000000 0.000000 0.000000 0.576000 -0.786288 11.811530 -1.707655 0.855053 -2.097429 -3.730147 13.247178 4.296587 8.812414 -0.615650 -22.539807 0.000000 0.000000 0.000000 0.002118 -24.321345 7.015878 5.974278 -37.706209 -5.274799 30.129898 -16.523864 -5.080609 0.000000 0.000000 0.000000 18.906681 12.033395 11.024026 61.335291 35.757269 13.930239 -41.157669 84.671114 -24.071385 0.000000 0.000000 0.000000 
0.327436 0.928639 0.073587 -9.670848 14.320694 5.584503 12.453235 -0.878455 -20.919972 -14.891486 2.385941 22.053275 0.544403 -0.282531 -2.348344 0.000000 0.000000 0.000000 -5.912522 0.392868 -7.293948 1.286041 -0.214172 14.818888 -2.086610 -8.732380 25.415142 0.000000 0.000000 0.000000 0.954238 -0.779515 11.201058 -1.879862 0.866347 -0.787487 -4.304023 11.786105 4.237061 8.887656 -0.787568 -22.753032 0.000000 0.000000 0.000000 -3.159976 -23.059691 6.415344 -0.964223 -37.182623 -2.888775 33.315331 -26.696188 -8.806814 0.000000 0.000000 0.000000 18.914180 9.869601 9.274684 63.043852 30.859347 11.507670 56.028827 88.869396 69.356106 0.000000 0.000000 0.000000 
0.313024 0.925309 0.069204 -8.736467 14.208705 5.085336 12.615435 -0.848754 -21.105325 -15.490093 2.579779 22.876411 0.726019 -0.113383 -2.733836 0.000000 0.000000 0.000000 -6.311130 0.293729 -5.623216 1.555074 -0.270866 14.381936 -2.845954 -10.104844 27.265616 0.000000 0.000000 0.000000 1.169589 -0.776177 10.923401 -1.363760 0.651259 -0.972879 -5.068743 11.181700 5.168367 9.218466 -1.000581 -22.885640 0.000000 0.000000 0.000000 -5.842379 -21.794177 5.736120 -7.138458 -36.452059 -1.017714 34.537827 -37.386117 -12.882985 0.000000 0.000000 0.000000 19.003015 7.360936 7.670011 64.520177 25.481015 8.549142 120.256478 83.344060 129.802872 0.000000 0.000000 0.000000 
0.294331 0.923122 0.063002 -7.838961 14.081254 4.753427 12.502688 -0.843539 -21.157941 -15.071873 2.488147 22.952770 0.940289 0.064540 -3.214853 0.000000 0.000000 0.000000 -6.316795 0.246332 -4.641936 1.716069 -0.298716 14.010781 -2.977048 -9.744297 21.489758 0.000000 0.000000 0.000000 1.548320 -0.770094 10.383125 -1.522033 0.698631 -0.488615 -5.408654 9.997931 5.439173 8.852614 -0.936246 -22.950723 0.000000 0.000000 0.000000 -8.268138 -20.451735 5.116795 -12.097485 -35.692594 0.404590 32.835921 -47.274060 -15.569455 0.000000 0.000000 0.000000 18.677835 5.329609 6.025674 65.519450 20.566058 5.865104 127.008051 76.671803 131.583389 0.000000 0.000000 0.000000 
0.272108 0.921683 0.055019 -6.915431 13.671498 4.170001 12.541908 -0.771511 -20.178821 -14.574492 2.337716 21.586321 1.135029 0.235811 -3.637476 0.000000 0.000000 0.000000 -6.003864 0.188873 -3.246526 1.938251 -0.300051 12.269860 -3.797067 -10.845730 17.179756 0.000000 0.000000 0.000000 2.012613 -0.806354 10.299998 -0.955885 0.472340 -0.907585 -6.124359 9.415036 6.033399 9.219719 -1.100818 -23.542359 0.000000 0.000000 0.000000 -9.870010 -19.056985 4.452152 -18.056575 -34.201899 1.809589 29.972381 -55.786726 -17.251926 0.000000 0.000000 0.000000 18.709023 3.277948 4.644190 65.821191 16.607776 3.518131 129.257381 70.560196 129.066715 0.000000 0.000000 0.000000 
0.247773 0.921345 0.046134 -6.070563 13.063498 3.710786 12.617324 -0.689979 -19.103895 -13.710119 2.105432 19.684669 1.248203 0.547032 -3.564755 0.000000 0.000000 0.000000 -5.450768 0.150506 -2.222780 2.043723 -0.273459 10.319922 -4.403454 -11.860570 13.782673 0.000000 0.000000 0.000000 2.196109 -0.782545 9.935985 -0.669237 0.346044 -0.913489 -6.370230 8.743704 6.029804 9.028034 -1.083522 -23.676809 0.000000 0.000000 0.000000 -11.104804 -17.729197 3.893531 -23.296101 -32.626011 2.823567 26.872000 -60.852949 -17.203849 0.000000 0.000000 0.000000 19.036749 2.276180 3.840145 65.492756 13.319368 1.476344 129.796314 65.595412 124.578459 0.000000 0.000000 0.000000 
0.222224 0.920069 0.036676 -5.185047 12.399979 2.961969 12.612230 -0.603417 -17.473004 -12.649627 1.826253 17.330471 1.345093 0.792288 -3.524617 0.000000 0.000000 0.000000 -4.561782 0.046704 -0.413904 1.666930 -0.156425 7.075700 -5.116722 -13.266036 10.891175 0.000000 0.000000 0.000000 2.719774 -0.782489 9.461082 -0.631526 0.334346 -0.918269 -6.646680 8.569969 6.524665 9.671491 -1.366778 -24.331457 0.000000 0.000000 0.000000 -11.964202 -16.866162 3.477908 -28.644735 -30.963331 3.597350 21.783520 -65.063337 -15.462452 0.000000 0.000000 0.000000 18.887753 0.795919 2.846771 65.864626 11.228609 0.279487 128.768765 62.135115 119.729757 0.000000 0.000000 0.000000 
0.196240 0.918571 0.026566 -4.347402 12.167380 2.310455 12.999316 -0.527268 -16.271299 -12.100854 1.652050 15.170907 1.146772 0.771479 -2.820607 0.000000 0.000000 0.000000 -3.871503 -0.071162 1.105160 1.491323 -0.132765 4.366893 -5.166017 -13.403071 7.849325 0.000000 0.000000 0.000000 3.314582 -0.778399 8.863747 -0.725148 0.366068 -0.657388 -6.723029 8.018392 6.608061 9.188317 -1.138340 -24.634780 0.000000 0.000000 0.000000 -12.775613 -15.777723 3.019266 -32.956518 -29.402246 4.011300 18.656865 -68.386069 -14.295899 0.000000 0.000000 0.000000 18.953280 0.300285 2.392861 65.935674 10.097081 -0.412424 126.667920 61.039084 115.283541 0.000000 0.000000 0.000000 
0.170695 0.917108 0.015545 -3.777333 11.485367 1.352564 13.512636 -0.423951 -14.883898 -11.306965 1.474662 13.245681 1.012926 1.049526 -1.884504 0.000000 0.000000 0.000000 -2.638763 -0.184795 2.204354 0.702346 -0.027493 2.605348 -5.035026 -13.161663 5.109883 0.000000 0.000000 0.000000 4.212447 -0.866881 9.051577 -0.858304 0.423781 -0.486061 -6.632209 7.787649 6.547665 9.530885 -1.436162 -24.422882 0.000000 0.000000 0.000000 -13.466230 -14.850055 2.618838 -36.922517 -27.588075 4.164741 14.374044 -71.680263 -12.097292 0.000000 0.000000 0.000000 18.365665 -0.146494 1.909369 66.389790 10.044396 -0.347553 123.668106 60.946711 110.831233 0.000000 0.000000 0.000000 
0.146489 0.916272 0.003633 -3.148469 10.819737 0.578204 14.112275 -0.329245 -14.175350 -10.899854 1.398888 12.051296 0.738969 1.411969 -0.262406 0.000000 0.000000 0.000000 -1.699910 -0.250639 2.666006 0.223738 0.017745 1.530665 -4.899585 -12.836874 2.946205 0.000000 0.000000 0.000000 4.897163 -0.955014 9.436993 -1.040236 0.523412 -0.674766 -6.486386 7.880697 6.777829 9.010200 -1.163839 -24.629179 0.000000 0.000000 0.000000 -14.003739 -14.222808 2.327290 -40.132575 -26.122715 4.132505 9.524076 -75.132335 -9.163844 0.000000 0.000000 0.000000 18.130259 -0.152616 1.816232 67.055729 10.836915 0.159865 120.196930 61.976076 107.396106 0.000000 0.000000 0.000000 
0.124762 0.916127 -0.008645 -2.742652 10.079546 -0.367670 14.525201 -0.243901 -13.337123 -10.015319 1.248255 10.972987 0.448878 1.763283 1.466754 0.000000 0.000000 0.000000 -0.466477 -0.332902 3.121019 -0.621169 0.104616 0.680195 -4.718205 -12.357841 1.556047 0.000000 0.000000 0.000000 5.778780 -1.084214 10.027283 -1.323643 0.682414 -1.149447 -6.023376 7.634943 7.451436 9.144841 -1.359431 -24.507804 0.000000 0.000000 0.000000 -14.442076 -13.448369 2.082096 -43.035968 -25.137968 4.061039 1.754156 -78.235407 -3.188916 0.000000 0.000000 0.000000 17.509377 -0.048043 1.665759 67.389235 12.226344 0.978508 116.297998 62.664676 103.051799 0.000000 0.000000 0.000000 
0.106155 0.917144 -0.020335 -2.300060 9.899656 -0.913461 14.808825 -0.201117 -13.090192 -9.366284 1.124006 10.044476 -0.105780 1.807166 3.634257 0.000000 0.000000 0.000000 0.175121 -0.347486 3.076295 -0.653254 0.088616 0.176197 -4.679584 -12.233022 1.052911 0.000000 0.000000 0.000000 6.314837 -1.186850 10.558311 -1.311907 0.677380 -1.094590 -5.918188 7.616786 7.418585 8.920987 -1.244861 -24.592219 0.000000 0.000000 0.000000 -14.636260 -13.403991 2.068276 -44.437751 -25.130869 4.201382 -5.587566 -81.286029 2.931926 0.000000 0.000000 0.000000 17.667219 0.163964 1.767082 67.790665 13.866221 1.987973 113.052149 63.465290 99.971699 0.000000 0.000000 0.000000 
0.090970 0.918870 -0.030195 -1.823399 9.276988 -1.320145 14.776527 -0.159363 -12.754473 -8.547475 0.997572 9.230939 -0.442857 2.182370 5.690215 0.000000 0.000000 0.000000 0.407618 -0.332252 2.898597 -0.455010 0.049795 -0.161609 -4.447457 -11.628977 1.019899 0.000000 0.000000 0.000000 6.731839 -1.231967 10.726188 -1.844603 0.921473 -0.974806 -5.198342 7.258974 7.514641 8.469333 -1.168091 -24.263145 0.000000 0.000000 0.000000 -14.617189 -13.115262 2.141545 -45.498707 -25.301653 4.306838 -22.087140 -83.507614 18.151015 0.000000 0.000000 0.000000 17.951031 0.834041 1.988099 67.286240 16.001027 3.089691 109.969633 63.938946 96.411645 0.000000 0.000000 0.000000 
0.079067 0.920514 -0.037915 -1.580722 8.848801 -1.480932 14.321717 -0.159146 -12.678077 -6.911504 0.742637 8.601368 -0.711851 2.419958 7.238159 0.000000 0.000000 0.000000 0.574892 -0.308785 2.664939 0.019959 -0.024946 -0.604030 -4.244865 -11.137123 1.331271 0.000000 0.000000 0.000000 6.941013 -1.254306 10.813126 -1.664410 0.855467 -1.450091 -5.150490 7.547534 7.714843 8.245371 -1.048913 -24.220413 0.000000 0.000000 0.000000 -14.193663 -13.220006 2.243153 -46.174891 -24.894298 4.159844 -58.207793 -84.743491 52.068514 0.000000 0.000000 0.000000 17.693969 1.177191 2.177649 67.696452 17.792061 4.283725 107.858180 64.891226 95.124375 0.000000 0.000000 0.000000 
0.070614 0.922095 -0.043504 -1.121880 8.606516 -1.503147 13.501557 -0.201341 -12.189562 -5.444069 0.519007 7.270598 -0.996596 2.545147 8.604731 0.000000 0.000000 0.000000 0.481969 -0.288031 2.512884 0.186458 -0.060477 -1.042719 -4.114930 -10.847050 1.706847 0.000000 0.000000 0.000000 7.073494 -1.228130 10.535648 -2.093028 1.042674 -1.134274 -4.726123 7.242927 7.357220 8.118246 -1.060425 -24.101844 0.000000 0.000000 0.000000 -13.690623 -13.023374 2.326901 -46.627876 -25.364834 4.351242 -80.216009 -84.023856 72.717505 0.000000 0.000000 0.000000 17.591407 1.534830 2.245641 67.927227 19.442874 5.373638 104.752003 65.918827 92.423900 0.000000 0.000000 0.000000 
